<?xml version="1.0" standalone="no"?>
<!DOCTYPE svg PUBLIC "-//W3C//DTD SVG 20010904//EN"
 "http://www.w3.org/TR/2001/REC-SVG-20010904/DTD/svg10.dtd">
<svg version="1.0" xmlns="http://www.w3.org/2000/svg"
 width="100.000000pt" height="100.000000pt" viewBox="0 0 100.000000 100.000000"
 preserveAspectRatio="xMidYMid meet">
<metadata>
Created by potrace 1.16, written by Peter Selinger 2001-2019
</metadata>
<g transform="translate(0.000000,100.000000) scale(0.100000,-0.100000)"
fill="#000000" stroke="none">
<path d="M0 500 l0 -500 500 0 500 0 0 500 0 500 -500 0 -500 0 0 -500z m631
400 c79 -27 123 -56 182 -119 91 -98 133 -233 108 -352 -15 -68 -58 -159 -77
-159 -11 0 -10 7 5 38 10 20 21 51 25 67 4 24 1 21 -15 -14 -22 -49 -37 -49
-20 0 6 18 11 44 10 58 -1 23 -2 22 -12 -9 -10 -34 -11 -32 -18 45 -10 121
-55 211 -134 265 -39 27 -175 75 -175 62 0 -4 67 -107 149 -229 l148 -223
-148 0 -149 0 -2 -47 -2 -48 -3 46 c-3 36 -8 48 -24 52 -25 7 -25 27 1 27 13
0 20 7 20 18 0 29 -21 42 -70 44 -43 1 -43 2 -7 5 61 7 41 33 -26 33 -18 0
-39 5 -47 10 -11 7 -3 10 29 10 l45 0 -29 30 c-16 17 -25 30 -19 30 5 0 35
-28 66 -62 52 -57 57 -61 58 -38 0 17 -14 39 -41 65 -22 22 -45 49 -51 60 -6
11 13 -2 41 -30 l51 -49 0 30 c0 21 -10 40 -35 64 -19 19 -35 38 -35 44 0 5
16 -5 35 -24 l35 -34 2 70 2 69 3 -67 c2 -38 6 -68 8 -68 2 0 17 14 34 31 l31
30 -37 55 c-20 29 -39 54 -43 54 -4 0 -53 -71 -110 -157 -56 -87 -117 -179
-134 -205 -17 -26 -37 -48 -43 -48 -7 0 -13 2 -13 4 0 5 71 114 157 241 37 55
83 125 102 155 42 69 34 63 84 71 l42 6 -42 2 c-31 1 -43 5 -43 16 0 11 12 16
43 17 l42 1 -42 4 c-56 5 -60 32 -5 35 l37 1 -37 4 c-25 3 -38 9 -38 19 0 21
59 18 131 -6z m-234 -85 c33 -37 38 -71 19 -111 -21 -46 -57 -59 -99 -38 -91
46 -113 110 -55 159 27 23 39 26 72 22 27 -4 49 -15 63 -32z m19 -449 c29 -29
34 -41 34 -79 0 -91 -96 -142 -155 -82 -32 31 -34 86 -5 115 49 49 128 -4 89
-60 -8 -12 -9 -11 -4 6 7 27 -20 56 -48 52 -12 -2 -28 -15 -36 -30 -14 -25
-14 -29 5 -55 28 -38 77 -43 110 -12 32 30 34 99 4 129 -42 42 -103 48 -132
12 -11 -13 -10 -14 9 -4 88 47 177 -55 108 -123 -42 -43 -100 -24 -93 30 2 24
8 30 28 30 16 0 26 -6 28 -17 2 -11 -3 -18 -12 -18 -10 0 -13 6 -9 18 5 13 3
14 -6 6 -23 -21 -9 -49 24 -49 23 0 33 7 43 28 12 24 11 31 -3 53 -34 53 -99
48 -130 -11 -27 -49 -6 -99 60 -142 50 -33 48 -45 -4 -18 -73 37 -97 104 -68
186 20 57 34 69 84 69 38 0 50 -5 79 -34z"/>
<path d="M546 580 c-34 -38 -49 -90 -26 -90 6 0 10 3 10 8 1 10 71 84 76 79 2
-2 -18 -30 -46 -61 -44 -50 -65 -97 -42 -95 4 0 29 27 57 59 27 33 51 57 54
55 2 -3 -6 -16 -19 -30 l-23 -25 41 0 c23 0 42 -4 42 -10 0 -5 -22 -10 -49
-10 -30 0 -53 -5 -60 -14 -10 -12 -6 -15 26 -19 35 -3 35 -4 -10 -5 -40 -2
-49 -6 -59 -27 -6 -14 -9 -27 -6 -30 3 -3 59 -4 125 -3 l120 3 -81 122 c-44
67 -84 124 -87 128 -3 3 -23 -13 -43 -35z"/>
</g>
</svg>
